<svg id="_220_car_outline" data-name="#220_car_outline" xmlns="http://www.w3.org/2000/svg" viewBox="0 0 400 300" width="406" height="306" class="illustration styles_illustrationTablet__1DWOa"><path d="M263.12,126s-29.21-28.13-50-34.16-103.24.92-106,2.68-19.29,19.84-22.5,27.13-3,18.33-2.3,21.84a13.16,13.16,0,0,0,1.61,4.78s-5-.25-5.51,2.51,0,19.59,0,23.1,2.76,6,6.2,6.78,42.93,0,42.93,0,3.21,4.78,4.59,4.78H320.05c4.13,0-.23-5.78-1.38-5.78,0,0,2.76-21.1,1.15-22.35L318.21,156a12.26,12.26,0,0,0-5.28-10.8C307,141.18,289.36,133.43,263.12,126Z" fill="#ff7f50"></path><path d="M320.05,186.39H132.13c-1.48,0-3.54-2.5-5.11-4.77-6,.12-39.29.7-42.62,0-4.18-.91-7-4-7-7.76,0-.89,0-2.65-.06-4.83-.15-8.58-.25-16.45.08-18.44.37-2.24,2.81-3.09,4.91-3.3a21.15,21.15,0,0,1-1-3.62c-.68-3.49-1-14.89,2.37-22.45s19.84-25.63,22.87-27.56c2-1.24,26.71-3.39,46.71-4.42,17.3-.88,48.12-1.84,60.09,1.62,20.19,5.85,47.55,31.63,50.26,34.22C289,132.31,307,140,313.49,144.37a13.15,13.15,0,0,1,5.75,11.16l1.2.94c1.34,1.05,1.11,8.64-.68,22.55,1.43,1,3,3.44,3,5a2.12,2.12,0,0,1-.75,1.71A3,3,0,0,1,320.05,186.39Zm-192.51-6.78a1,1,0,0,1,.83.45c1.45,2.15,3.24,4.17,3.82,4.33H320.05c.07,0,.69,0,.73-.2.19-.95-1.56-3.26-2.24-3.59a1,1,0,0,1-.86-1.12c1.23-9.41,2.09-19.93,1.43-21.51l-1.51-1.18a1,1,0,0,1-.38-.89,11.18,11.18,0,0,0-4.85-9.87c-6.21-4.18-24.36-11.95-49.52-19.12a1,1,0,0,1-.42-.24c-.29-.28-29.28-28-49.61-33.92C191.7,86.64,110.42,94,107.61,95.34,105,97,88.59,115.05,85.53,122c-3.16,7.14-2.88,17.95-2.23,21.25a13,13,0,0,0,1.44,4.39,1,1,0,0,1,.05,1.06,1,1,0,0,1-.92.52c-1.08-.06-4.22.14-4.47,1.67-.33,2-.16,12.05-.06,18.08,0,2.19.07,4,.07,4.86,0,2.81,2.13,5.09,5.41,5.81,2.73.59,31.75.18,42.7,0ZM319.2,158.05h0Z" fill="#093f68"></path><path d="M186.73,127.08l-3.45-29.64s22.27,2,34.67,6S243.2,117,245.5,121.55s1.84,8.29,0,9S186.73,127.08,186.73,127.08Z" fill="#fff"></path><path d="M243.88,131.64c-8.61,0-42-2.42-57.23-3.57a1,1,0,0,1-.92-.88l-3.44-29.63a1,1,0,0,1,.28-.82,1,1,0,0,1,.8-.29c.92.08,22.53,2.06,34.89,6.07,12.05,3.91,25.54,13.48,28.13,18.58,1.6,3.14,2.08,6.28,1.29,8.4a3.31,3.31,0,0,1-1.8,2A9,9,0,0,1,243.88,131.64Zm-56.25-5.5c22.28,1.67,55.42,3.92,57.58,3.5a1.53,1.53,0,0,0,.6-.84c.46-1.23.38-3.67-1.2-6.79-2.12-4.17-14.65-13.6-27-17.59-10.49-3.4-28.4-5.38-33.22-5.86Z" fill="#093f68"></path><path d="M242.33,135.11c-.73-.05,1.61-17.64,1.61-17.64s7.57,2.26,9.87,7.77S252.66,135.8,242.33,135.11Z" fill="#093f68"></path><path d="M244.12,136.17q-.9,0-1.86-.06h0a1.13,1.13,0,0,1-.74-.39c-.33-.39-.87-1.06,1.42-18.38a1,1,0,0,1,.45-.7,1,1,0,0,1,.83-.12c.33.09,8.06,2.45,10.51,8.33a7.51,7.51,0,0,1-.48,7.49C252.46,134.84,248.9,136.17,244.12,136.17Zm-.94-2c4.6.18,7.93-.87,9.44-3a5.59,5.59,0,0,0,.26-5.55c-1.58-3.79-6-6-8.11-6.79C243.93,125.28,243.2,132,243.18,134.15Z" fill="#093f68"></path><path d="M176.86,126.32l-1.38-28.88s-42.7,0-46.61,2S112.35,111.51,112.8,116s7.58,5.27,9.65,6.53S176.86,126.32,176.86,126.32Z" fill="#fff"></path><path d="M176.86,127.32h-.05c-12.34-.59-52.76-2.62-54.88-3.91a14.4,14.4,0,0,0-2.3-.88c-3-1-7.42-2.44-7.82-6.4-.54-5.35,13-15.71,16.61-17.57,4-2.06,42.66-2.12,47.06-2.12a1,1,0,0,1,1,1l1.37,28.89a1,1,0,0,1-1,1Zm-2.33-28.88c-17.08,0-42.54.53-45.2,1.9-4.3,2.22-15.9,12-15.53,15.59.27,2.67,3.7,3.79,6.45,4.7A14.38,14.38,0,0,1,123,121.7c2.07.84,32.32,2.58,52.83,3.57Z" fill="#093f68"></path><circle cx="124.15" cy="178.61" r="23.76" fill="#093f68"></circle><path d="M124.15,203.38a24.77,24.77,0,1,1,24.77-24.77A24.79,24.79,0,0,1,124.15,203.38Zm0-47.53a22.77,22.77,0,1,0,22.77,22.76A22.79,22.79,0,0,0,124.15,155.85Z" fill="#093f68"></path><circle cx="124.15" cy="178.61" r="13.61" fill="#ff7f50"></circle><path d="M124.15,193.22a14.61,14.61,0,1,1,14.61-14.61A14.62,14.62,0,0,1,124.15,193.22Zm0-27.21a12.61,12.61,0,1,0,12.61,12.6A12.61,12.61,0,0,0,124.15,166Z" fill="#093f68"></path><circle cx="261.94" cy="178.61" r="23.76" fill="#093f68"></circle><path d="M261.94,203.38a24.77,24.77,0,1,1,24.77-24.77A24.79,24.79,0,0,1,261.94,203.38Zm0-47.53a22.77,22.77,0,1,0,22.77,22.76A22.79,22.79,0,0,0,261.94,155.85Z" fill="#093f68"></path><circle cx="261.94" cy="178.61" r="13.61" fill="#ff7f50"></circle><path d="M261.94,193.22a14.61,14.61,0,1,1,14.61-14.61A14.62,14.62,0,0,1,261.94,193.22Zm0-27.21a12.61,12.61,0,1,0,12.61,12.6A12.61,12.61,0,0,0,261.94,166Z" fill="#093f68"></path><path d="M88.76,124.12a45,45,0,0,0-2.28,6.55c-.94,5.52-1,11-.4,11.51s6.43.39,7.12,0,5.43-9,6-10.86,1.8-5.67.71-6.43S89.83,123.05,88.76,124.12Z" fill="#ffbc0e"></path><path d="M89.17,143.53c-3.07,0-3.52-.4-3.75-.59-1.7-1.49.06-12.33.08-12.44a44.63,44.63,0,0,1,2.34-6.77,1,1,0,0,1,.21-.31c1.56-1.56,11.2-.24,12.47.65s1.17,3.08-.33,7.56c-.39,1.18-5.27,10.74-6.51,11.43a13.47,13.47,0,0,1-4.06.47Zm-2.29-1.92Zm-.06-.21a25.16,25.16,0,0,0,5.84-.09A77.08,77.08,0,0,0,98.29,131c1.35-4,1.13-5.1,1-5.31-1.29-.65-8.26-1.36-9.78-.87a40.07,40.07,0,0,0-2.08,6A39.81,39.81,0,0,0,86.82,141.4Zm-.22-.06Z" fill="#093f68"></path><path d="M313.58,157.52s-.52-5.94-3.5-7.55-14.53-6.23-15.32-4.16,5.05,9.41,6.54,10.67S313.58,157.52,313.58,157.52Z" fill="#ffbc0e"></path><path d="M311.18,158.54c-3.82,0-9.23-.2-10.53-1.29-.91-.78-8-8.84-6.83-11.8a1.7,1.7,0,0,1,1.05-1c3.05-1.13,14,3.7,15.68,4.62,3.37,1.81,4,7.68,4,8.34a1,1,0,0,1-.25.75,1,1,0,0,1-.73.34ZM295.67,146.3c-.08,1.57,4.38,7.81,6.28,9.42.79.58,5.85.86,10.49.81-.33-1.86-1.16-4.78-2.84-5.68C305.93,148.87,297.37,145.83,295.67,146.3Z" fill="#093f68"></path><path d="M90.21,152.41H83.92a1,1,0,1,1,0-2h6.29a1,1,0,1,1,0,2Z" fill="#093f68"></path><path d="M209.33,138.38H197.51a1,1,0,0,1,0-2h11.82a1,1,0,1,1,0,2Z" fill="#093f68"></path><path d="M169.52,138.38H157.7a1,1,0,0,1,0-2h11.82a1,1,0,0,1,0,2Z" fill="#093f68"></path><path d="M185.09,183.86a1,1,0,0,1-1-1V140.44c0-1.45-4.09-8-8.05-13.53a1,1,0,0,1,1.63-1.17c1.4,2,8.42,11.89,8.42,14.7v42.42A1,1,0,0,1,185.09,183.86Z" fill="#093f68"></path><path d="M137.76,115.06a1,1,0,0,1-.86-.49,1,1,0,0,1,.35-1.37l19.95-11.73a1,1,0,1,1,1,1.72l-19.94,11.73A1,1,0,0,1,137.76,115.06Z" fill="#dfeaef"></path><path d="M151,121.07a1,1,0,0,1-.84-.46,1,1,0,0,1,.29-1.38l12.6-8.19a1,1,0,0,1,1.09,1.68l-12.6,8.19A1,1,0,0,1,151,121.07Z" fill="#dfeaef"></path><path d="M197.51,123a1,1,0,0,1-.66-1.75l15.44-13.84a1,1,0,1,1,1.34,1.49l-15.45,13.85A1,1,0,0,1,197.51,123Z" fill="#dfeaef"></path><path d="M217.74,125.14a1,1,0,0,1-.72-.31,1,1,0,0,1,0-1.41l9-8.64a1,1,0,0,1,1.42,0,1,1,0,0,1,0,1.41l-9,8.64A1,1,0,0,1,217.74,125.14Z" fill="#dfeaef"></path></svg>