<svg xmlns="http://www.w3.org/2000/svg" viewBox="0 0 400 300" width="406" height="306" class="illustration styles_illustrationTablet__1DWOa"><g id="_515_data_storage_outline" data-name="#515_data_storage_outline"><path d="M264.08,176.18v30.4c0,8.58-28.38,15.53-63.39,15.53s-63.38-7-63.38-15.53v-30.4Z" fill="#ff7f50"></path><path d="M200.69,223.11c-31.64,0-64.38-6.18-64.38-16.53v-30.4a1,1,0,0,1,1-1H264.08a1,1,0,0,1,1,1v30.4C265.08,216.93,232.34,223.11,200.69,223.11Zm-62.38-45.93v29.4c0,7,25.07,14.53,62.38,14.53s62.39-7.51,62.39-14.53v-29.4Z" fill="#093f68"></path><ellipse cx="200.69" cy="176.18" rx="63.38" ry="15.54" fill="#093f68"></ellipse><path d="M200.69,192.71c-31.65,0-64.38-6.18-64.38-16.53s32.73-16.54,64.38-16.54,64.39,6.19,64.39,16.54S232.34,192.71,200.69,192.71Zm0-31.07c-37.31,0-62.38,7.52-62.38,14.54s25.07,14.53,62.38,14.53,62.39-7.51,62.39-14.53S238,161.64,200.69,161.64Z" fill="#093f68"></path><path d="M254.61,206a1,1,0,0,1-1-1V193.15a1,1,0,1,1,2,0V205A1,1,0,0,1,254.61,206Z" fill="#093f68"></path><path d="M264.08,134.67v30.4c0,8.58-28.38,15.54-63.39,15.54s-63.38-7-63.38-15.54v-30.4Z" fill="#ff7f50"></path><path d="M200.69,181.61c-31.64,0-64.38-6.19-64.38-16.54v-30.4a1,1,0,0,1,1-1H264.08a1,1,0,0,1,1,1v30.4C265.08,175.42,232.34,181.61,200.69,181.61Zm-62.38-45.94v29.4c0,7,25.07,14.54,62.38,14.54s62.39-7.52,62.39-14.54v-29.4Z" fill="#093f68"></path><ellipse cx="200.69" cy="134.67" rx="63.38" ry="15.54" fill="#093f68"></ellipse><path d="M200.69,151.21c-31.65,0-64.38-6.18-64.38-16.54s32.73-16.53,64.38-16.53,64.39,6.18,64.39,16.53S232.34,151.21,200.69,151.21Zm0-31.07c-37.31,0-62.38,7.51-62.38,14.53s25.07,14.54,62.38,14.54,62.39-7.52,62.39-14.54S238,120.14,200.69,120.14Z" fill="#093f68"></path><path d="M254.61,164.53a1,1,0,0,1-1-1V151.64a1,1,0,0,1,2,0v11.89A1,1,0,0,1,254.61,164.53Z" fill="#093f68"></path><path d="M247,167.59a1,1,0,0,1-1-1V154.7a1,1,0,0,1,2,0v11.89A1,1,0,0,1,247,167.59Z" fill="#093f68"></path><path d="M247,209.05a1,1,0,0,1-1-1V196.16a1,1,0,0,1,2,0v11.89A1,1,0,0,1,247,209.05Z" fill="#093f68"></path><path d="M239.33,210.27a1,1,0,0,1-1-1V197.38a1,1,0,0,1,2,0v11.89A1,1,0,0,1,239.33,210.27Z" fill="#093f68"></path><path d="M264.08,93.17v30.4c0,8.58-28.38,15.54-63.39,15.54s-63.38-7-63.38-15.54V93.17Z" fill="#ff7f50"></path><path d="M200.69,140.11c-31.64,0-64.38-6.19-64.38-16.54V93.17a1,1,0,0,1,1-1H264.08a1,1,0,0,1,1,1v30.4C265.08,133.92,232.34,140.11,200.69,140.11ZM138.31,94.17v29.4c0,7,25.07,14.54,62.38,14.54s62.39-7.52,62.39-14.54V94.17Z" fill="#093f68"></path><ellipse cx="200.69" cy="93.17" rx="63.38" ry="15.54" fill="#ff7f50"></ellipse><path d="M200.69,109.71c-31.65,0-64.38-6.19-64.38-16.54S169,76.64,200.69,76.64s64.39,6.18,64.39,16.53S232.34,109.71,200.69,109.71Zm0-31.07c-37.31,0-62.38,7.51-62.38,14.53s25.07,14.54,62.38,14.54,62.39-7.52,62.39-14.54S238,78.64,200.69,78.64Z" fill="#093f68"></path><path d="M254.61,123a1,1,0,0,1-1-1V110.14a1,1,0,1,1,2,0V122A1,1,0,0,1,254.61,123Z" fill="#093f68"></path><polygon points="181.29 205.03 128.41 205.03 128.41 142.74 166.69 142.74 181.29 156.93 181.29 205.03" fill="#fff"></polygon><path d="M181.29,206H128.41a1,1,0,0,1-1-1v-62.3a1,1,0,0,1,1-1h38.28a1,1,0,0,1,.7.28L182,156.21a1,1,0,0,1,.3.72V205A1,1,0,0,1,181.29,206Zm-51.88-2h50.88V157.35l-14-13.61H129.41Z" fill="#093f68"></path><polygon points="166.69 142.74 166.69 156.93 181.29 156.93 166.69 142.74" fill="#70cc40"></polygon><path d="M181.29,157.93h-14.6a1,1,0,0,1-1-1V142.74a1,1,0,0,1,1.7-.72L182,156.21a1,1,0,0,1-.7,1.72Zm-13.6-2h11.13l-11.13-10.82Z" fill="#093f68"></path><path d="M154.85,156.1H136.59a1,1,0,0,1,0-2h18.26a1,1,0,0,1,0,2Z" fill="#dfeaef"></path><path d="M171.68,168.87H136.59a1,1,0,0,1,0-2h35.09a1,1,0,0,1,0,2Z" fill="#dfeaef"></path><path d="M171.68,181.46h-10a1,1,0,0,1,0-2h10a1,1,0,0,1,0,2Z" fill="#dfeaef"></path><path d="M152.85,181.46H136.59a1,1,0,0,1,0-2h16.26a1,1,0,0,1,0,2Z" fill="#dfeaef"></path><path d="M160.27,194.05H136.59a1,1,0,1,1,0-2h23.68a1,1,0,1,1,0,2Z" fill="#dfeaef"></path><path d="M283.59,120.45a8.63,8.63,0,0,1-2.32,5.93,7.7,7.7,0,0,1-5.61,2.46H214a8.17,8.17,0,0,1-7.93-8.39,8.64,8.64,0,0,1,2.32-5.93,8.39,8.39,0,0,1,1.45-1.21,16.29,16.29,0,0,1-.35-3.31c0-8.26,6.33-15,14.14-15a13.42,13.42,0,0,1,7.13,2C231,87,238.75,78.9,248.3,78.9s17.2,8,17.5,17.91c.26,0,.54,0,.81,0,6.9,0,12.5,5.92,12.5,13.22a13.89,13.89,0,0,1-.28,2.76A8.42,8.42,0,0,1,283.59,120.45Z" fill="#fff"></path><path d="M275.66,129.84H214a9.17,9.17,0,0,1-8.93-9.39,9.55,9.55,0,0,1,2.6-6.61,8.29,8.29,0,0,1,1.07-1,16.28,16.28,0,0,1-.25-2.87c0-8.81,6.8-16,15.14-16a14.37,14.37,0,0,1,6.22,1.41c1-9.81,8.91-17.54,18.41-17.54,9.73,0,17.66,7.78,18.44,17.88,7.38.08,13.37,6.43,13.37,14.22a15.06,15.06,0,0,1-.17,2.21,9.48,9.48,0,0,1,4.65,8.24,9.59,9.59,0,0,1-2.59,6.62A8.65,8.65,0,0,1,275.66,129.84ZM223.67,96c-7.24,0-13.14,6.27-13.14,14a14.94,14.94,0,0,0,.33,3.11,1,1,0,0,1-.43,1,7.29,7.29,0,0,0-1.27,1.06,7.6,7.6,0,0,0-2,5.24,7.18,7.18,0,0,0,6.93,7.39h61.62a6.69,6.69,0,0,0,4.88-2.14,7.6,7.6,0,0,0,2-5.25,7.41,7.41,0,0,0-4.18-6.78,1,1,0,0,1-.56-1.11,13.08,13.08,0,0,0,.26-2.56c0-6.74-5.16-12.22-11.5-12.22-.25,0-.5,0-.74,0a1,1,0,0,1-1.07-1c-.29-9.5-7.54-16.94-16.5-16.94S232,87.61,231.8,97.09a1,1,0,0,1-.52.86,1,1,0,0,1-1,0A12.44,12.44,0,0,0,223.67,96Z" fill="#093f68"></path><polygon points="239.06 125.92 239.06 111.36 230.66 111.36 230.66 125.92 226.22 125.92 234.86 134.68 243.51 125.92 239.06 125.92" fill="#ffbc0e"></polygon><path d="M234.86,135.67a1,1,0,0,1-.71-.29l-8.64-8.76a1,1,0,0,1,.71-1.7h3.44V111.36a1,1,0,0,1,1-1h8.4a1,1,0,0,1,1,1v13.56h3.45a1,1,0,0,1,.71,1.7l-8.64,8.76A1,1,0,0,1,234.86,135.67Zm-6.25-8.75,6.25,6.33,6.26-6.33h-2.06a1,1,0,0,1-1-1V112.36h-6.4v13.56a1,1,0,0,1-1,1Z" fill="#093f68"></path><polygon points="259.04 120.11 259.04 134.68 250.64 134.68 250.64 120.11 246.19 120.11 254.84 111.36 263.48 120.11 259.04 120.11" fill="#f56132"></polygon><path d="M259,135.67h-8.4a1,1,0,0,1-1-1V121.11h-3.45a1,1,0,0,1-.71-1.7l8.65-8.75a1,1,0,0,1,.71-.3h0a1,1,0,0,1,.71.3l8.65,8.75a1,1,0,0,1,.21,1.09,1,1,0,0,1-.93.61H260v13.56A1,1,0,0,1,259,135.67Zm-7.4-2H258V120.11a1,1,0,0,1,1-1h2l-6.25-6.33-6.26,6.33h2.06a1,1,0,0,1,1,1Z" fill="#093f68"></path></g></svg>