<svg id="Layer_2" data-name="Layer 2" xmlns="http://www.w3.org/2000/svg" xmlns:xlink="http://www.w3.org/1999/xlink" viewBox="0 0 400 300" width="406" height="306" class="illustration styles_illustrationTablet__1DWOa"><defs><linearGradient id="linear-gradient" x1="39.99" y1="207.44" x2="103.01" y2="154.67" gradientUnits="userSpaceOnUse"><stop offset="0.01" stop-color="#2e3192" stop-opacity="0"></stop><stop offset="1" stop-color="#666"></stop></linearGradient><linearGradient id="linear-gradient-2" x1="218.77" y1="189.64" x2="253.42" y2="137.84" xlink:href="#linear-gradient"></linearGradient><linearGradient id="linear-gradient-3" x1="132.88" y1="243.41" x2="163.47" y2="215.15" xlink:href="#linear-gradient"></linearGradient><linearGradient id="linear-gradient-4" x1="206.12" y1="259.79" x2="233.21" y2="235.91" xlink:href="#linear-gradient"></linearGradient></defs><title>cc</title><path d="M197.45,282.06l162.36-96c5.17-2.9,9.6-7.67,4.56-10.79L201.43,81.4c-2.44-1.51-6.16-2.51-8.64-1.06L22.35,179.25c-5.17,3-6.1,11.39-.92,14.39L176,281.91A21.59,21.59,0,0,0,197.45,282.06Z" fill="#feb2d8"></path><path d="M123.71,162.68l-6.38-8.86L109,150.89,96.2,156.54,28.08,192.08,53.47,205.7C63.84,199.74,113.52,169,123.71,162.68Z" opacity="0.48" fill="url(#linear-gradient)"></path><polyline points="316.43 176.5 229.34 221.84 142.12 171.36 228.04 121.32" opacity="0.48" fill="url(#linear-gradient-2)"></polyline><polygon points="224.62 124.87 316.43 176.75 316.43 70.88 224.89 18.02 224.62 124.87" fill="#8fdb5e"></polygon><polygon points="215.44 130.28 307.25 182.15 307.25 76.29 215.7 23.43 215.44 130.28" fill="#f29d40"></polygon><polygon points="205.36 134.52 297.17 186.39 297.17 80.53 205.63 27.67 205.36 134.52" fill="#ff7f50"></polygon><path d="M142.53,213.67c-11.82,6.89-24,13-35.84,19.86l40.46,21.92,30.41-19.25Z" opacity="0.48" fill="url(#linear-gradient-3)"></path><ellipse cx="250.2" cy="94.51" rx="17.52" ry="25.29" transform="translate(-12.69 45.29) rotate(-10.09)" fill="#fff"></ellipse><path d="M259.07,85.89,245.57,99.75l-4-4.26c-1.08,1.18-1.36,1.47-2.51,2.58l6.78,7.89,15.51-17.41Z" fill="#1e8c0e"></path><path d="M232.4,134.37a7.54,7.54,0,0,1,.38,2.45c0,1.74-.59,2.68-1.41,2.78a2.29,2.29,0,0,1-1.38-.38,5.43,5.43,0,0,1-2.37-3.13,7.54,7.54,0,0,1-.37-2.45c0-1.74.59-2.68,1.41-2.77a2.27,2.27,0,0,1,1.37.36A5.37,5.37,0,0,1,232.4,134.37Zm-1.21,3.53a2.23,2.23,0,0,0,.49-1.72,4.92,4.92,0,0,0-.47-2.25,3,3,0,0,0-1.18-1.34,1,1,0,0,0-1.19,0,2.31,2.31,0,0,0-.47,1.71,5,5,0,0,0,.45,2.26,3.08,3.08,0,0,0,1.18,1.35,1,1,0,0,0,1.19,0" fill="#fff"></path><path d="M237.22,123.71a7.54,7.54,0,0,1,.38,2.45c0,1.74-.59,2.68-1.41,2.78a2.29,2.29,0,0,1-1.38-.38,5.43,5.43,0,0,1-2.37-3.13,7.56,7.56,0,0,1-.38-2.45c0-1.74.6-2.68,1.41-2.76a2.24,2.24,0,0,1,1.37.36A5.38,5.38,0,0,1,237.22,123.71ZM236,127.24a2.23,2.23,0,0,0,.49-1.72,4.92,4.92,0,0,0-.47-2.25,3,3,0,0,0-1.18-1.34,1,1,0,0,0-1.19,0,2.27,2.27,0,0,0-.48,1.71,5,5,0,0,0,.46,2.26,3.08,3.08,0,0,0,1.18,1.35,1,1,0,0,0,1.19,0" fill="#fff"></path><path d="M241.4,128.76l1.61,4.43-1.21-.7-1.56-4.27-.57-.33,0,3.37-1.09-.63,0-7.81,2.13,1.23a3.66,3.66,0,0,1,1.77,3.24C242.5,128.34,242.1,128.88,241.4,128.76Zm-.68-1.61c.46.27.69.11.69-.49a1.34,1.34,0,0,0-.68-1.27l-1.05-.61v1.76l1.05.61" fill="#fff"></path><path d="M245.65,126.88a6.2,6.2,0,0,1,2.71,5.47c0,2.73-1.37,3.13-2.75,2.34l-1.83-1.05,0-7.81Zm1,6.53c.4-.13.65-.7.65-1.7a4.35,4.35,0,0,0-.63-2.43A3.9,3.9,0,0,0,245.3,128l-.41-.23,0,5.13.41.23a1.62,1.62,0,0,0,1.33.26" fill="#fff"></path><polygon points="252.99 131.09 252.98 132.43 250.44 130.98 250.44 132.61 252.47 133.78 252.46 135.12 250.43 133.95 250.42 136.11 253.04 137.61 253.03 138.95 249.32 136.82 249.36 129.01 252.99 131.09" fill="#fff"></polygon><path d="M256.87,137.65l1.61,4.43-1.22-.7-1.55-4.27-.57-.33,0,3.37-1.09-.63,0-7.81,2.13,1.23a3.67,3.67,0,0,1,1.77,3.24C258,137.23,257.58,137.78,256.87,137.65Zm-.67-1.6c.46.26.69.11.69-.49a1.35,1.35,0,0,0-.68-1.27l-1.05-.61v1.76l1.05.61" fill="#fff"></path><path d="M224.07,127.81a5.18,5.18,0,0,1,2.42,3.76l-1-.24a3.23,3.23,0,0,0-1.44-2.19,1,1,0,0,0-1.2,0,2.35,2.35,0,0,0-.47,1.71,5.06,5.06,0,0,0,.45,2.24,3.08,3.08,0,0,0,1.2,1.37c.71.41,1.19.23,1.45-.53l1,.9c-.28,1.34-1.17,1.7-2.44,1a5.26,5.26,0,0,1-2-2.19,7.11,7.11,0,0,1-.79-3.4,3,3,0,0,1,.81-2.47A1.7,1.7,0,0,1,224.07,127.81Z" fill="#fff"></path><polygon points="239.17 136.57 239.13 144.38 238.05 143.76 238.07 138.94 236.93 142.39 236.14 141.94 235.04 137.2 235.01 142.02 233.93 141.39 233.96 133.58 235.19 134.29 236.54 139.95 237.95 135.88 239.17 136.57" fill="#fff"></polygon><path d="M242.59,138.54A3.82,3.82,0,0,1,244.4,142c0,1.43-.65,2-1.84,1.33l-1.12-.65,0,3.05-1.09-.63,0-7.81Zm-.06,3.39c.51.29.77.1.78-.6a1.56,1.56,0,0,0-.77-1.48l-1.08-.62v2.08l1.08.62" fill="#fff"></path><polygon points="246.5 140.79 246.47 147.26 248.96 148.69 248.95 150.03 245.38 147.97 245.41 140.16 246.5 140.79" fill="#fff"></polygon><polygon points="253.59 144.87 253.59 146.21 251.05 144.75 251.04 146.38 253.08 147.55 253.07 148.89 251.04 147.72 251.03 149.88 253.65 151.38 253.64 152.72 249.93 150.59 249.97 142.78 253.59 144.87" fill="#fff"></polygon><polygon points="258.83 147.87 258.82 149.21 257.2 148.28 257.17 154.75 256.08 154.12 256.11 147.66 254.49 146.72 254.49 145.38 258.83 147.87" fill="#fff"></polygon><polygon points="263.39 150.5 263.38 151.84 260.85 150.38 260.84 152.02 262.88 153.19 262.87 154.52 260.84 153.35 260.82 155.51 263.45 157.02 263.44 158.35 259.73 156.22 259.77 148.41 263.39 150.5" fill="#fff"></polygon><path d="M266.31,152.17a6.2,6.2,0,0,1,2.71,5.47c0,2.73-1.37,3.13-2.75,2.34l-1.83-1.05,0-7.81Zm1,6.53c.4-.13.65-.7.65-1.7a4.35,4.35,0,0,0-.63-2.43,3.9,3.9,0,0,0-1.32-1.26l-.4-.23,0,5.13.4.23a1.62,1.62,0,0,0,1.33.26" fill="#fff"></path><path d="M119.51,165.42V144.87l18.4-10.28V155Z" fill="#b24f28"></path><path d="M119.51,144.87l-17.9-10.28s-.5,20.72,0,21,17.9,9.78,17.9,9.78Z" fill="#c96336"></path><polygon points="101.61 134.59 119.51 123.65 137.91 134.59 119.51 144.87 101.61 134.59" fill="#db7d58"></polygon><polygon points="108.43 130.43 127.06 140.65 127.06 151.37 132.42 148.67 132.42 137.65 113.79 127.15 108.43 130.43" fill="#fdedcb"></polygon><path d="M71.89,94.54c-12.58.87-11.92,21.21-12.77,29.65-.21,2.12,3.05,2.83,3.27.69.71-7,.24-16.56,4.15-22.74,1.21-1.91,2.64-3.79,5.12-4a5.51,5.51,0,0,1,4.1,1.61c1.1,1,1.69,4.93,1.87,6.1a50,50,0,0,1,.22,13.16c-.22,2.12,3,2.83,3.27.69C81.82,113.1,83.09,93.76,71.89,94.54Z" fill="#8ccc00"></path><polyline points="90.7 108.19 94.48 114.49 102.05 116.07 96.37 135.61 80.3 125.21" fill="#dd842a"></polyline><polygon points="51.93 129.62 90.7 108.19 89.44 140.02 59.81 142.86 51.93 129.62" fill="#c13d3d"></polygon><polygon points="65.8 134.35 71.79 194.55 108.03 172.81 102.05 116.07 65.8 134.35" fill="#ff7f50"></polygon><polygon points="65.8 134.35 61.7 129.62 51.93 129.62 47.83 182.26 58.35 187.11 71.79 194.55 65.8 134.35" fill="#ff7f50"></polygon><polygon points="65.8 134.35 61.7 129.62 51.93 129.62 47.83 182.26 58.35 187.11 71.79 194.55 65.8 134.35" fill="#42210b" opacity="0.14"></polygon><path d="M88.08,104.6c-12.61.12-13.17,20.46-14.52,28.83-.34,2.1,2.88,3,3.22.89,1.13-7,1.23-16.51,5.5-22.46,1.75-2.44,4.82-4.49,7.84-2.89,2.7,1.43,2.74,4.63,3,7.3a50,50,0,0,1-.57,13.15c-.35,2.1,2.87,3,3.22.89C96.88,123.72,99.31,104.5,88.08,104.6Z" fill="#8ccc00"></path><path d="M240.24,247.45l-6.38-8.86-8.35-2.93-12.78,5.64-19.91,12.48,16,11.09C219.22,258.91,230,253.72,240.24,247.45Z" opacity="0.48" fill="url(#linear-gradient-4)"></path><path d="M208.45,175.32a12.21,12.21,0,0,1,5.94,1.16,9.66,9.66,0,0,1,4.19,4.78c.91,1.92,1.32,4.66,3.22,5.9a5.59,5.59,0,0,1,1.88,1.63,4.9,4.9,0,0,1,.58,4.56c-.84,1.69-4.36,2.72-6,2.41" fill="#8fdb5e"></path><path d="M206.89,175.53a11.47,11.47,0,0,0-10.12,8.68,15.15,15.15,0,0,0-.07,7.15c.46,1.9,1.58,5.19,3.9,5.33,3.13.19,4.15-2.74,5.14-5.14s2-5.05,4.53-6a6.74,6.74,0,0,1,7.23,1.63Z" fill="#1e8c0e"></path><path d="M221.2,188.25c-1.89-2.45-3.46-5.12-5.29-7.61a22.65,22.65,0,0,0-3.67-4.44c-4.35-2.11-9.83-.18-13,3.53.44.13,1.06.16,1.39.28a12.4,12.4,0,0,1,5,3.53c1.93,2.13,3.43,4.74,5.13,7,2.77,3.68,6.44,6.7,11.18,4.5C224.92,193.64,222.54,190,221.2,188.25Z" fill="#8fdb5e"></path><path d="M236.57,156.76s9.81-.77,9.62,14.74-14.84,5.31-11.62-4" fill="#1e8c0e"></path><path d="M235.15,172c-.11-4.72,5.2-8.17,9.67-8.77-.71-2.71-3.46-7.07-8.87-6.93-6.71.17-11.75,7-12.88,15S228,184.49,228,184.49l3.24,2.76C237.22,184.92,235,176.33,235.15,172Z" fill="#8fdb5e"></path><path d="M261.86,183.13a20.48,20.48,0,0,0-2.27-8.43,9.28,9.28,0,0,0-6.38-4.94l-5.52,10.63s8.23-14.39,4.87-3.31,7.72,23.51,9.24,7C261.83,183.74,261.84,183.44,261.86,183.13Z" fill="#1e8c0e"></path><path d="M222.84,210.81s-7.38,4.8-5.33,16a61.67,61.67,0,0,0,3.28,11.39c1.43,3.65,2.48,8.37,6.16,10.43,3.43,1.92,8.74,2.27,12.2.16,3.17-1.93,4.29-6.32,5.46-9.59a59.52,59.52,0,0,0,2.83-12.39C250.92,199.7,222.84,210.81,222.84,210.81Z" fill="#ff7f50"></path><ellipse cx="232.78" cy="212.45" rx="10.76" ry="3.89" fill="#34323d"></ellipse><path d="M233.65,191.71c-1.5-3.63-4.31-6.68-5.2-10.57A13.83,13.83,0,0,1,234,167c.82-.6,0-2-.8-1.37-6.88,5-8.21,13.53-4.2,20.8,1.24,2.25,2.87,4.41,3.63,6.9,1,3.24-.12,5.58-1.64,8a9.22,9.22,0,0,0-2.39-6.52c-1.79-1.66-4.43-1.94-6.64-2.68-4.29-1.45-8.06-3.9-8.79-8.68-.15-1-1.69-.58-1.54.42.6,3.91,3.17,6.7,6.62,8.48a46.1,46.1,0,0,0,6.39,2.22,7.43,7.43,0,0,1,4.21,4.12c1,2.34.33,3.95-.25,6.22-.74,2.95-1.92,5.48.11,8.27.6.82,2,0,1.37-.8-3.23-4.45,1.93-8.68,3.67-12.51A9.84,9.84,0,0,0,233.65,191.71Z" fill="#1e8c0e"></path><path d="M253.51,182c-6.8-1.2-11.43,4.07-11,10.66a25,25,0,0,0,.91,4.88c.31,1.15,1.1,3.09.9,4.23a6.43,6.43,0,0,1-3.89,4.55c-3,1.4-4.85,3.07-5.74,6.31a.8.8,0,0,0,1.54.42c1.57-5.76,9.62-4.93,9.68-11.28,0-3.1-1.62-6-1.81-9.11-.33-5.42,3.21-10.14,9-9.12C254.09,183.67,254.52,182.13,253.51,182Z" fill="#1e8c0e"></path><path d="M259.59,174.7c-2.64-4.86-7.43-6-12.12-4.55a15.47,15.47,0,0,0-1.89.92c-11.82,8.75-3.43,28.51-1.61,28.36,6-.5,5.4-4,7.41-13.94a9.35,9.35,0,0,1,9.41-7.92A17.51,17.51,0,0,0,259.59,174.7Z" fill="#8fdb5e"></path><path d="M257,171.48a9.85,9.85,0,0,0-10.07,4.83c-4.32,7.22-3.32,15.64-2.75,23.61.07,1,1.67,1,1.59,0-.42-5.76-1.23-11.46.34-17.12.77-2.77,1.69-5.86,3.91-7.85a8.16,8.16,0,0,1,8.89-1.27l-.6-.82C257.87,172.4,257.43,171.94,257,171.48Z" fill="#1e8c0e"></path><path d="M167.44,221.72c0,.2,4.22,9.83,5.17,10.43s3.87-1.28,4.87-.22,2.28,3.33.07,4.27-8.79,1.84-10,1.32a20.33,20.33,0,0,1-3.25-2.2s-.62-5.16-1.31-4.45-.44,6.27-.93,6.43a5.4,5.4,0,0,1-1.93-.28l.63-16.27" fill="#225870"></path><path d="M149.17,213.07c0,.2,4.57,9.67,5.54,10.24s3.82-1.42,4.86-.39,2.4,3.24.22,4.27-8.72,2.15-9.93,1.67a20.33,20.33,0,0,1-3.33-2.08s-.8-5.13-1.46-4.4-.22,6.29-.7,6.46a5.4,5.4,0,0,1-1.93-.21l0-16.28" fill="#225870"></path><path d="M165.25,133.28s13.45,68.9,12.34,84.91c0,0-2.67,10.67-25.78,7.11,0,0-2-8-1.11-21.56S154,133.28,154,133.28Z" fill="#42210b"></path><path d="M162.81,214.71l-3.48-82.22-13.91-1.29s-6.06,21.19-4.73,31.41-1.56,23.78-2.22,30.9c-.6,6.38-.84,17.42,1.37,22.34C147.3,218,155.37,217.27,162.81,214.71Z" fill="#42210b"></path><path d="M150.83,221.39a137.48,137.48,0,0,1-2.33-15.61,55.57,55.57,0,0,1-.05-7.7,75,75,0,0,1,1.13-7.87,57.13,57.13,0,0,0,.64-14.14c-.36-4.85-1.1-9.66-1.56-14.49a52.18,52.18,0,0,1,.53-16.35c.15-.7-.92-1-1.07-.3-2.15,9.66-.08,19.45.83,29.12a58.1,58.1,0,0,1-.28,15c-.4,2.43-.9,4.85-1.16,7.3a51.24,51.24,0,0,0-.18,7.91,127.92,127.92,0,0,0,2.46,17.4C149.89,222.39,151,222.1,150.83,221.39Z" fill="#fff"></path><path d="M151.69,97.8c1.39-.56,22.58-25.75,23.61-25.28s6.76,8.57,3.84,13-22.43,24.66-22.43,24.66" fill="#f25555"></path><polyline points="180.3 116.93 175.58 114.92 179.68 89.93 193.18 96.24 191.6 108 189.62 120.06 180.3 116.93 181.77 115.04" fill="#124577"></polyline><path d="M156.14,97.38c1.31.48,7,.48,8.86,5.79a119.92,119.92,0,0,1,3.27,12l13.68-7.76s.82,12-.82,15.1-9.59,9.8-16.13,5.92c0,0,.61,4.69,0,6.12s-15.65,3.16-19.12-1.33-1.09-25.82-1.09-25.82" fill="#ff6161"></path><path d="M181.72,113.49c-.22-1.72-.28-3.46-.45-5.19a8.7,8.7,0,0,0,1.29-1.23c.47-.5.92-1,1.36-1.55.28-.57.57-1.14.88-1.71l.34-.71c.43-.89.82-2.3,1.84-2.7a1.33,1.33,0,0,1,1.83,1c.17,1.55-2.47,4.87.65,4.78a11.14,11.14,0,0,1,1.76.05c1.19.16,2.29.74,1.85,2.11a2.11,2.11,0,0,1-.27.54,1.6,1.6,0,0,1,1,2.13,1.77,1.77,0,0,1-1,1,1.14,1.14,0,0,1,0,1.46,1.74,1.74,0,0,1-1.1.68,1.44,1.44,0,0,1-.07.7c-.39,1.06-1.79,1.43-2.77,1.61a32.48,32.48,0,0,1-6.66.18C182,115.62,181.85,114.56,181.72,113.49Z" fill="#f7931e"></path><path d="M187.31,69.82c1.36,1.25,1.2,3.08.72,4.89a.63.63,0,0,0-.37.14,29.24,29.24,0,0,1-3.28,2,21.18,21.18,0,0,1-2.75,1.26A7.7,7.7,0,0,0,179,79.68a40.5,40.5,0,0,0-1.88-4.84c3.23-3,6-5.13,8.67-8.61.29-.38.94-1.59,1.33-1.54a.88.88,0,0,1,1,.8c.23,1.55-1,2.82-2,3.92C186.14,69.45,187.36,69.77,187.31,69.82Z" fill="#f7931e"></path><path d="M186.8,71.17c-.33-.28.14-.75.47-.47a4.55,4.55,0,0,1,.73.78,3.53,3.53,0,0,1,.72,1.31,3.35,3.35,0,0,1,.05.35v0a.35.35,0,0,1,0,.15.88.88,0,0,1-.2.67c-.33.31-.76,0-1-.28a3.32,3.32,0,0,1-.66-1.31c-.1-.36-.29-.81,0-1.12Z" fill="#f7931e"></path><path d="M179.89,79.23a5.63,5.63,0,0,1,3-1.6,5.07,5.07,0,0,0,2.27-.8,3.41,3.41,0,0,0,.94-1.12.25.25,0,0,0,.24.22,1.59,1.59,0,0,0,1.85-1,1.55,1.55,0,0,0,0-.44,1.35,1.35,0,0,0,1.14-1.1,2.45,2.45,0,0,0-.34-1.35,11.71,11.71,0,0,0-.95-1.72h0a1,1,0,0,0-.51-.95c-1.13-.82-2.76.87-3.53,1.54-.33.28.15.75.47.47s.78-.65,1.19-.94l.05-.06a2,2,0,0,1,.71-.51.71.71,0,0,1,.94.64.94.94,0,0,1-.36.67c-.08.1-.19.21-.32.38a7.27,7.27,0,0,0-.45.57c-.59.93-.26,1.88-.59,2.87-.55,1.66-2.07,1.71-3.49,2.09a6.09,6.09,0,0,0-2.75,1.65A.33.33,0,0,0,179.89,79.23ZM187.21,72v0a8.36,8.36,0,0,0,.58-.82c.18.3.35.61.51.93a2.63,2.63,0,0,1,.39.93c0,.12-.2,1-.51.85l-.08,0A10.4,10.4,0,0,0,187.21,72Zm-1,3.38c.3-.85,0-1.78.42-2.6l.1-.19a10,10,0,0,1,.57,1.3c.26.74.13,1.56-.84,1.43A.35.35,0,0,0,186.24,75.35Z" fill="#42210b"></path><path d="M164.1,80.48c.85.54.82,14.05-3,15.72-5,2.18-9.05-3.76-9.52-6.95S154.19,74.21,164.1,80.48Z" fill="#f7931e"></path><path d="M137.63,102.25a5.9,5.9,0,0,0,1.79-1.81,8,8,0,0,0,.32-2.77c.13-2.28.72-4.7,2.83-6,1.34-.8,3.25-.1,4.37-1.32,1.27-1.39.85-3.43,1-5.13.9-8.83,13.91-10.43,18.1-3.24a5.19,5.19,0,0,1-1.53,7,5.12,5.12,0,0,1-2.07.81c-1.08.17-2.13.14-2.6,1.31-.69,1.74.58,3.54,1.21,5.1,1,2.41,1.29,5.88-1.07,7.63a12.1,12.1,0,0,1-3.8,1.4,3,3,0,0,0-1.49.83c-.63.79-.23,1.88-.1,2.77a4.36,4.36,0,0,1,0,1.42,3,3,0,0,1-.72,2.51c-1.41,1.72-4,1.77-6.06,1.67a18.91,18.91,0,0,1-6.9-1.7c-1.91-.87-4.28-2.21-5.26-4.15C134.49,106.24,135.81,103.8,137.63,102.25Z" fill="#42210b"></path><path d="M159.78,114.19a28.84,28.84,0,0,0,1.26,8.12,9.73,9.73,0,0,0,4.37,5.77c.43.26,0,.93-.39.67a10.25,10.25,0,0,1-4.53-5.65,28.55,28.55,0,0,1-1.49-8.92A.39.39,0,0,1,159.78,114.19Z" fill="#124577" opacity="0.7"></path></svg>