<svg xmlns="http://www.w3.org/2000/svg" xmlns:xlink="http://www.w3.org/1999/xlink" viewBox="0 0 400 300" width="406" height="306" class="illustration styles_illustrationTablet__1DWOa"><defs><linearGradient id="linear-gradient" x1="130.77" y1="158.85" x2="104.78" y2="205.49" gradientUnits="userSpaceOnUse"><stop offset="0" stop-color="#8c6239"></stop><stop offset="1" stop-color="#fff"></stop></linearGradient><linearGradient id="linear-gradient-2" x1="-274.75" y1="207.74" x2="-319.66" y2="231.94" gradientTransform="translate(543.22)" xlink:href="#linear-gradient"></linearGradient><linearGradient id="linear-gradient-3" x1="334.06" y1="176.2" x2="315.79" y2="189.63" xlink:href="#linear-gradient"></linearGradient></defs><title>201-210</title><g style="isolation: isolate;"><g id="Layer_2" data-name="Layer 2"><polyline points="186.8 288.13 371.3 181.74 189.57 77.31 6.18 183.89 186.64 288.24" fill="#e7d2ca"></polyline><path d="M112.7,239.8,169,204.88l-68.22-38.43L42.49,202.67C46.2,204.47,108.9,238.23,112.7,239.8Z" fill="url(#linear-gradient)" style="mix-blend-mode: multiply;"></path><path d="M187.74,84.62s9.75,7.95,21.53,3.46S229.91,78.33,230,77.69s1.15-6,1.15-6,0-2.81,1.79-2,22.73,12.51,23.11,12.77,1.53,0,1.66,3.7,0,14.3,0,14.3.38,1.25-1.15,1.33S247,99.27,247,99.27s-11.11,5.62-12.64,7.53-2.81,3.32.64,7.79S187.74,84.62,187.74,84.62Z" fill="#774c28"></path><path d="M257.74,86.92c-.07-2.06-.46-2.9-.86-3.28-13.42,7-27.1,13.45-40.14,21.11,10.65,6.94,19.8,12.63,18.27,10.64-3.45-4.47-2.17-5.87-.64-7.79S247,100.07,247,100.07s8,2.55,9.58,2.47,1.15-1.33,1.15-1.33S257.87,90.62,257.74,86.92Z" fill="#633b14"></path><path d="M258.55,129.77l-34.9-24.32-72.47-42L124.58,79a10,10,0,0,1,1,4.58v30.17c0,5.7-3.91,8.85-8.27,9.5-1,2.24-1.07,4-1.74,6.68a10.12,10.12,0,0,1-12.3,7l-.07,0-2.13,5.86v23.41L169,204.88l90.83-52.34Z" fill="#633b14"></path><polygon points="201.24 118.78 223.65 105.44 151.17 63.41 124.23 79.19 197.08 121.05 201.24 118.78" fill="#774c28"></polygon><path d="M129.16,76.69l-4.92,2.5v32.13s-1.1,3.11-7.53,9.27-15.6,14.66-15.6,14.66v7.49l68.17,38.79,32-17V118.78Z" fill="#ff7f50"></path><polygon points="124.23 111.32 124.23 79.19 197.08 121.05 197.08 154.32 124.23 111.32" fill="#2e7c78" opacity="0.43"></polygon><polyline points="180.9 118.78 177.61 117.01 177.61 130.2 192.79 138.93 192.79 135.25" fill="#fff" opacity="0.36"></polyline><polygon points="180.9 118.78 180.9 128.51 192.79 135.25 192.79 125.99 180.9 118.78" fill="#1a1a1a"></polygon><path d="M177.1,142.17s5-3.82,5.83-4.42c0,0,5.43,1.18,5.43,9.29l-5.53,2.73" fill="#5e5e5e"></path><ellipse cx="180.15" cy="145.81" rx="2.83" ry="4.79" transform="translate(-50.79 126.28) rotate(-34.15)" fill="#272727"></ellipse><path d="M132,111.66a9.36,9.36,0,0,1,2.15-1.15c.56-.07,2.81-.22,5.19,3.74,2.15,3.58.08,6.15.08,6.15l-1.62,1" fill="#a52117"></path><ellipse cx="135.12" cy="116.45" rx="3.6" ry="5.69" transform="translate(-41.58 92.04) rotate(-32.89)" fill="#ef2e2e"></ellipse><polygon points="151.28 127.28 125.91 149.82 130.89 152.69 155.85 129.62 151.28 127.28" fill="#d6754c"></polygon><polygon points="155.64 129.76 130.87 152.68 135.85 155.54 159.95 132.31 155.64 129.76" fill="#98d34c"></polygon><polygon points="159.89 132.23 135.79 155.53 140.78 158.39 164.08 134.69 159.89 132.23" fill="#efe85e"></polygon><polyline points="143.52 107.64 148.88 101.74 169.28 136.11 161.1 138.08" fill="#676768"></polyline><ellipse cx="160.32" cy="118.15" rx="11.47" ry="20.16" transform="translate(-37.6 95.99) rotate(-30)" fill="#676768"></ellipse><ellipse cx="152.31" cy="122.86" rx="10.3" ry="17.57" transform="translate(-41.02 92.62) rotate(-30)" fill="#4f4f51"></ellipse><ellipse cx="151.65" cy="123.7" rx="7.17" ry="11.02" transform="translate(-41.53 92.4) rotate(-30)" fill="#34343a"></ellipse><ellipse cx="152.31" cy="122.86" rx="6.18" ry="10.54" transform="translate(-41.02 92.62) rotate(-30)"></ellipse><path d="M101.11,135.25l68.17,39.19v7.08s-68.17-37.78-68.17-38.79Z" fill="#2e7c78" opacity="0.43"></path><polygon points="197.08 121.05 197.08 154.32 169.28 174.45 169.28 181.53 201.24 164.49 201.24 118.78 197.08 121.05" fill="#fff" opacity="0.36"></polygon><polygon points="107.38 152.69 161.42 184.09 161.42 187.98 107.01 156.74 107.38 152.69"></polygon><polygon points="154.47 180.09 107.67 221.9 68.04 199.68 115.59 157.49 154.47 180.09" fill="#fff"></polygon><polygon points="115.59 157.49 113.87 159.02 152.9 181.53 154.47 180.09 115.59 157.49" fill="#d3d2d1"></polygon><path d="M109.62,166.87l-33.7,29.9,34.4,19.34,32.78-30C131.87,179.8,120.83,173.18,109.62,166.87Z" fill="#ff7f50"></path><path d="M101.83,173.78c-.8.71-4,13.19-2.69,14.2,1.45,1.17,12.71-4.36,13.67-3.2s-1.37,14.78,1.06,16c2.94,1.45,18.16-4.52,18.16-4.52l11.08-10.14-33.48-19.23Z" fill="#2e7c78" opacity="0.43"></path><circle cx="104.03" cy="196.68" r="5.19" fill="#fff"></circle><path d="M217.75,243.67l40.31-24.72-11.41-8-41.38,27.84C209.3,240.71,213.62,242,217.75,243.67Z" fill="url(#linear-gradient-2)" style="mix-blend-mode: multiply;"></path><path d="M239.39,213.79c0,.15-3.15,7.34-3.86,7.78s-2.89-1-3.64-.16-1.7,2.48-.05,3.19,6.56,1.37,7.45,1a15.18,15.18,0,0,0,2.43-1.64s.46-3.85,1-3.32.33,4.68.7,4.8a4,4,0,0,0,1.44-.21l-.47-12.15" fill="#ff6161"></path><path d="M253,207.33c0,.15-3.41,7.22-4.14,7.64s-2.86-1.06-3.63-.29-1.79,2.42-.17,3.19,6.51,1.6,7.41,1.25a15.18,15.18,0,0,0,2.49-1.55s.6-3.83,1.09-3.29.16,4.69.52,4.82a4,4,0,0,0,1.44-.16l0-12.16" fill="#ff6161"></path><path d="M241,147.77s-10,51.44-9.21,63.38c0,0,2,8,19.25,5.31,0,0,1.49-6,.83-16.09s-2.49-52.6-2.49-52.6Z" fill="#42210b"></path><path d="M242.85,208.56l2.6-61.37,10.38-1s4.52,15.82,3.53,23.45,1.16,17.75,1.66,23.06c.45,4.76.63,13-1,16.68A28.75,28.75,0,0,1,242.85,208.56Z" fill="#42210b"></path><path d="M251.79,213.55a102.63,102.63,0,0,0,1.74-11.65,41.48,41.48,0,0,0,0-5.75,56,56,0,0,0-.84-5.88,42.65,42.65,0,0,1-.47-10.56c.27-3.62.82-7.21,1.17-10.82a39,39,0,0,0-.39-12.2c-.12-.52.68-.74.8-.22,1.6,7.21.06,14.52-.62,21.74a43.37,43.37,0,0,0,.21,11.22c.3,1.82.67,3.62.87,5.45a38.25,38.25,0,0,1,.14,5.9,95.49,95.49,0,0,1-1.84,13C252.49,214.29,251.69,214.07,251.79,213.55Z" fill="#fff"></path><polyline points="229.79 134.12 233.31 132.69 230.26 114.95 220.18 119.44 221.36 127.78 222.83 136.34 229.79 134.12 228.69 132.78" fill="#124577"></polyline><path d="M247.83,120.25c-1,.34-5.25.34-6.62,4.11a81.78,81.78,0,0,0-2.44,8.55l-10.21-5.51s-.61,8.55.61,10.72,7.16,7,12,4.2c0,0-.46,3.33,0,4.35s11.68,2.24,14.27-.94.82-18.33.82-18.33" fill="#ff6161"></path><path d="M228.73,131.68c.16-1.22.21-2.46.34-3.68a6.37,6.37,0,0,1-1-.88c-.35-.36-.69-.72-1-1.1s-.43-.81-.66-1.21l-.26-.5c-.32-.63-.61-1.63-1.37-1.92a1,1,0,0,0-1.37.74c-.13,1.1,1.84,3.46-.49,3.39a8.75,8.75,0,0,0-1.31,0c-.89.11-1.71.53-1.38,1.5a1.47,1.47,0,0,0,.2.38,1.12,1.12,0,0,0-.71,1.52,1.29,1.29,0,0,0,.76.72.78.78,0,0,0,0,1,1.31,1.31,0,0,0,.82.48,1,1,0,0,0,.06.49c.29.75,1.33,1,2.07,1.14a25.49,25.49,0,0,0,5,.13C228.5,133.18,228.63,132.43,228.73,131.68Z" fill="#f7931e"></path><path d="M241.88,108.25c-.64.38-.61,10,2.26,11.16,3.75,1.55,6.76-2.67,7.11-4.93S249.28,103.79,241.88,108.25Z" fill="#f7931e"></path><path d="M261.64,123.7a4.3,4.3,0,0,1-1.33-1.28,5.44,5.44,0,0,1-.24-2c-.09-1.62-.54-3.34-2.11-4.23-1-.57-2.43-.07-3.26-.94s-.64-2.44-.77-3.64c-.67-6.27-10.38-7.41-13.51-2.3a3.57,3.57,0,0,0,1.14,4.94,3.94,3.94,0,0,0,1.54.57c.8.12,1.59.1,1.94.93.52,1.24-.44,2.52-.9,3.62-.73,1.71-1,4.17.8,5.41a9.33,9.33,0,0,0,2.84,1,2.27,2.27,0,0,1,1.11.59c.47.56.17,1.34.07,2a2.94,2.94,0,0,0,0,1,2.06,2.06,0,0,0,.53,1.78c1.05,1.22,3,1.26,4.52,1.19a14.71,14.71,0,0,0,5.15-1.21c1.43-.62,3.19-1.57,3.93-2.94C264,126.53,263,124.8,261.64,123.7Z" fill="#42210b"></path><path d="M245.11,132.17a19.55,19.55,0,0,1-.94,5.76,7,7,0,0,1-3.26,4.1.28.28,0,0,0,.29.48,7.36,7.36,0,0,0,3.38-4,19.36,19.36,0,0,0,1.11-6.33C245.7,131.82,245.12,131.82,245.11,132.17Z" fill="#124577" opacity="0.7"></path><path d="M332.26,172.59l-2.63,3.86L286.18,199.3l18.67,10.47,33.89-27.62C336.24,177.56,336.13,176.17,332.26,172.59Z" fill="url(#linear-gradient-3)" style="mix-blend-mode: multiply;"></path><path d="M323.52,167.1l2.71,12.63a2.84,2.84,0,0,0,1.52,2c1.57.77,4.82,1.58,11,.46a2.86,2.86,0,0,0,2.29-2.2l2.78-12.84" fill="#ff6161"></path><ellipse cx="333.66" cy="167.1" rx="10.14" ry="4.15" fill="#124577"></ellipse><path d="M327.76,157.75a3.25,3.25,0,0,1-1.18-1.09l-5.71-8.83c-2.65-4.09-3.61-33.43,3.32-33.81,5.5-.29,11.16,12.57,13.13,16.33a61.1,61.1,0,0,1,5,11.11c1.66,5.79-2.1,10.85-5.67,15.44C334.91,159.11,330.05,159,327.76,157.75Z" fill="#66c652"></path><path d="M331.17,163.54q1.15.81,2.26,1.68a107.77,107.77,0,0,0-5.36-38.59,1.17,1.17,0,0,0-2.24.7A105.51,105.51,0,0,1,331.17,163.54Z" fill="#124577"></path><path d="M339.23,155.39a2.08,2.08,0,0,1-.14-1l.78-6.67c.36-3.09,11.82-17.91,15.38-15.28,2.83,2.09.38,10.72-.18,13.37a39,39,0,0,1-2.07,7.48c-1.54,3.52-5.45,4.48-9.07,5.29C342.19,159,339.84,156.94,339.23,155.39Z" fill="#49b230"></path><path d="M349.76,140.55a128.77,128.77,0,0,0-12.16,27.38,14.92,14.92,0,0,1,1.67,1.07,127,127,0,0,1,12.18-27.54C352.09,140.39,350.39,139.48,349.76,140.55Z" fill="#124577"></path></g></g></svg>