<svg id="Layer_2" data-name="Layer 2" xmlns="http://www.w3.org/2000/svg" viewBox="0 0 400 300" width="406" height="306" class="illustration styles_illustrationTablet__1DWOa"><title>141-150</title><path d="M205.54,277.81l149.75-81.13a6.79,6.79,0,0,0,.27-11.9L210.39,98a7.38,7.38,0,0,0-7.36-.1L44.62,186.61a6.79,6.79,0,0,0,0,11.95l141.25,79.11A20.46,20.46,0,0,0,205.54,277.81Z" fill="#00275e"></path><path d="M180.19,157.31s-30.29,16.17-37.46,54.75c0,0,29.5,6.25,69-26.42" fill="#eb773a"></path><path d="M179.81,162.23S166.89,173.82,163.25,182s-8.39,20.15-8.39,20.15S177.61,204.09,199,191,200,153.43,179.81,162.23Z" fill="#ffae46"></path><path d="M192.65,158.16c-.78,1.31-14.09,8.81-16.58,19.63l4.34-3.29s-7.38,10.34-10.51,16.29c0,0,18-7.17,17.44-6.74l-5.09,3.86s13.69-.29,23-8.61-3.49-22.83-3.49-22.83Z" fill="#fad374"></path><path d="M232.82,158.06s-2.35,15.25-7.38,19-21.36,16.18-21.36,16.18l-2.71-3.58s11.26-20.07,13.25-28.93S232.82,158.06,232.82,158.06Z" fill="#ff7f50"></path><path d="M232.82,158.06s-2.35,15.25-7.38,19-21.36,16.18-21.36,16.18l-2.71-3.58s11.26-20.07,13.25-28.93S232.82,158.06,232.82,158.06Z" fill="#363636" opacity="0.61"></path><path d="M216.56,136.6s-15.32-1.86-20.34,2-21.36,16.18-21.36,16.18l2.71,3.58s22.37-5.41,31.44-4.92S216.56,136.6,216.56,136.6Z" fill="#ff7f50"></path><path d="M216.56,136.6s-15.32-1.86-20.34,2-21.36,16.18-21.36,16.18l2.71,3.58s22.37-5.41,31.44-4.92S216.56,136.6,216.56,136.6Z" fill="#363636" opacity="0.61"></path><path d="M290.11,111a93.23,93.23,0,0,0,9.74-20.23s-8.9.1-22.2,4.06C278.71,101.6,284.12,107,290.11,111Z" fill="#ff7f50"></path><ellipse cx="247.84" cy="129.79" rx="9.6" ry="10.91" transform="translate(-28.08 176.01) rotate(-37.15)" fill="#ff7f50"></ellipse><path d="M330.93,66.83s-83.8,20.84-126.38,82.54c0,0-10,10.67-5.17,16.6s20.93,1.21,20.93,1.21S273.22,152.16,330.93,66.83Z" fill="#ff7f50"></path><path d="M204.55,149.37s-10.56-1.28-14,1.35-14.72,11.15-14.72,11.15l1.87,2.47s15.42-3.73,21.66-3.39S204.55,149.37,204.55,149.37Z" fill="#ff7f50"></path><path d="M217.27,166.16s-1.62,10.51-5.09,13.13-14.72,11.15-14.72,11.15L195.6,188s7.76-13.83,9.13-19.94S217.27,166.16,217.27,166.16Z" fill="#ff7f50"></path><path d="M204.55,149.37s-10.56-1.28-14,1.35-14.72,11.15-14.72,11.15l1.87,2.47s15.42-3.73,21.66-3.39S204.55,149.37,204.55,149.37Z" fill="#363636" opacity="0.29"></path><path d="M217.27,166.16s-1.62,10.51-5.09,13.13-14.72,11.15-14.72,11.15L195.6,188s7.76-13.83,9.13-19.94S217.27,166.16,217.27,166.16Z" fill="#363636" opacity="0.29"></path><path d="M290.22,81.86s-.29,14.17,14.71,19.42l-8.7,9.88s-18.84-10.59-15.92-24.5Z" fill="#ff7f50"></path><path d="M236.41,114.71s.17,24,22.55,30.83L242.34,156.9s-24-8.33-19.55-29.68Z" fill="#ff7f50"></path><circle cx="274.82" cy="108.55" r="3.38" transform="translate(-9.78 188) rotate(-37.15)" fill="#ff7f50"></circle><circle cx="259.01" cy="120.53" r="8.82" transform="matrix(0.8, -0.6, 0.6, 0.8, -20.23, 180.88)" fill="#ff7f50"></circle><path d="M290.22,81.86s-.29,14.17,14.71,19.42l-8.7,9.88s-18.84-10.59-15.92-24.5Z" fill="#606060" opacity="0.61"></path><path d="M236.41,114.71s.17,24,22.55,30.83L242.34,156.9s-24-8.33-19.55-29.68Z" fill="#606060" opacity="0.61"></path><circle cx="274.82" cy="108.55" r="3.38" transform="translate(-9.78 188) rotate(-37.15)" fill="#606060" opacity="0.61"></circle><circle cx="259.01" cy="120.53" r="8.82" transform="matrix(0.8, -0.6, 0.6, 0.8, -20.23, 180.88)" fill="#606060" opacity="0.61"></circle><path d="M306.3,172.93a1,1,0,0,0,0,2A1,1,0,0,0,306.3,172.93Z" fill="#fff"></path><path d="M255.64,212.76v.64a1,1,0,0,0,2,0v-.64A1,1,0,0,0,255.64,212.76Z" fill="#fff"></path><path d="M185.6,228.68v.64a1,1,0,0,0,2,0v-.64A1,1,0,0,0,185.6,228.68Z" fill="#fff"></path><path d="M250.91,179.93a1,1,0,0,0,0,2A1,1,0,0,0,250.91,179.93Z" fill="#fff"></path><path d="M131.21,178a1,1,0,0,0,0,2A1,1,0,0,0,131.21,178Z" fill="#fff"></path><path d="M86.27,180.93v.64a1,1,0,0,0,2,0v-.64A1,1,0,0,0,86.27,180.93Z" fill="#fff"></path><path d="M107.65,212.4a1,1,0,0,0,0,2A1,1,0,0,0,107.65,212.4Z" fill="#fff"></path><path d="M140.76,155.73a1,1,0,0,0,0,2A1,1,0,0,0,140.76,155.73Z" fill="#fff"></path><path d="M189.78,123.9a1,1,0,0,0,0,2A1,1,0,0,0,189.78,123.9Z" fill="#fff"></path><path d="M219.71,248.69a1,1,0,0,0,0,2A1,1,0,0,0,219.71,248.69Z" fill="#fff"></path><path d="M285.92,192.48c-6.43,0-6.45,10,0,10S292.37,192.48,285.92,192.48Z" fill="#ffae46"></path><path d="M106.38,186.75c-6.43,0-6.45,10,0,10S112.82,186.75,106.38,186.75Z" fill="#ffae46"></path><path d="M202.23,252.52a5,5,0,0,0-7.07,0,5.2,5.2,0,0,0-1.46,3.54v.64a5.16,5.16,0,0,0,1.46,3.54,5,5,0,0,0,7.07,0,5.2,5.2,0,0,0,1.46-3.54v-.64A5.16,5.16,0,0,0,202.23,252.52Z" fill="#00aee1"></path><circle cx="110.75" cy="96.94" r="21.8" fill="#ff7f50"></circle><path d="M128.48,84.95a56.38,56.38,0,0,1,7-1.46,32.18,32.18,0,0,1,3.58-.34,16.22,16.22,0,0,1,3.72.22,5.51,5.51,0,0,1,2,.76,3.16,3.16,0,0,1,.92.93,2.83,2.83,0,0,1,.42,1.34,4.85,4.85,0,0,1-.53,2.26,11.28,11.28,0,0,1-1,1.7,29.63,29.63,0,0,1-5.22,5.21,89.59,89.59,0,0,1-11.89,8,135.57,135.57,0,0,1-12.73,6.49,117.61,117.61,0,0,1-13.39,5.1,67.87,67.87,0,0,1-7,1.83A46.67,46.67,0,0,1,87,118a21,21,0,0,1-3.8-.15,12.06,12.06,0,0,1-3.88-1.12,6.93,6.93,0,0,1-1.82-1.27,4.76,4.76,0,0,1-1.25-2.15,4.92,4.92,0,0,1,0-2.37A8,8,0,0,1,77,109,20.63,20.63,0,0,1,82,103.48a41.27,41.27,0,0,1,5.87-4.06,70.35,70.35,0,0,0-4.9,5A22,22,0,0,0,79.16,110a3.56,3.56,0,0,0-.26,2.52,2,2,0,0,0,.6.8,4.79,4.79,0,0,0,1.12.65,13.92,13.92,0,0,0,6.18.59,61.8,61.8,0,0,0,13.29-3.06c4.4-1.42,8.69-3.2,13-5a146.92,146.92,0,0,0,24.38-13.3,31.76,31.76,0,0,0,5.09-4.38,9,9,0,0,0,.92-1.23,2.94,2.94,0,0,0,.42-1.1.75.75,0,0,0-.34-.68,4,4,0,0,0-1.25-.61,24.06,24.06,0,0,0-6.76-.64C133.18,84.57,130.83,84.71,128.48,84.95Z" fill="#8cc63f"></path></svg>